<?xml version="1.0" encoding="utf-8" standalone="no"?>
<!DOCTYPE svg PUBLIC "-//W3C//DTD SVG 1.1//EN" "http://www.w3.org/Graphics/SVG/1.1/DTD/svg11.dtd">
<svg xmlns="http://www.w3.org/2000/svg" width="24" height="24" viewBox="0 0 24 24" fill="none"
     stroke="currentColor" stroke-width="2" stroke-linecap="round" stroke-linejoin="round">
  <circle cx="12" cy="12" r="3"/>
  <path d="M19.4 15a7.9 7.9 0 0 0 .1-2l2-1.5-2-3.5-2.4.6a7.6 7.6 0 0 0-1.7-1l-.4-2.5H10l-.4 2.5a7.6 7.6 0 0 0-1.7 1L5.5 8l-2 3.5L5.5 13a7.9 7.9 0 0 0 .1 2l-2 1.5 2 3.5 2.4-.6a7.6 7.6 0 0 0 1.7 1l.4 2.5h4l.4-2.5a7.6 7.6 0 0 0 1.7-1l2.4.6 2-3.5-2-1.5z"/>
</svg>
